<svg viewBox="50 50 200 200" fill="none" xmlns="http://www.w3.org/2000/svg">
<path d="M236 230.025V69.8565C236 68.4682 234.62 67.5022 233.316 67.9771L123.316 108.021C122.526 108.309 122 109.06 122 109.9V185.193C122 186.007 122.492 186.739 123.245 187.046L233.245 231.877C234.561 232.413 236 231.446 236 230.025Z" stroke="#2A86E0" stroke-width="12"/>
<path d="M64 230.035V69.848C64 68.4621 65.3753 67.4963 66.6789 67.9667L177.679 108.023C178.472 108.309 179 109.062 179 109.905V185.189C179 186.004 178.505 186.738 177.749 187.043L66.7492 231.889C65.4346 232.42 64 231.453 64 230.035Z" stroke="#0CC6FF" stroke-width="12"/>
</svg>
